<svg xmlns="http://www.w3.org/2000/svg" xmlns:xlink="http://www.w3.org/1999/xlink" version="1.1" data-diagram-type="DESCRIPTION" style="width:754px;height:725px;background:#FFFFFF;" width="754px" height="725px" viewBox="0 0 754 725" zoomAndPan="magnify" preserveAspectRatio="none" contentStyleType="text/css"><?plantuml 1.2026.7beta8?><defs/><g font-family="sans-serif" lengthAdjust="spacing"><!--cluster Frontend--><g class="cluster" data-qualified-name="Frontend" id="ent0001" data-source-line="5"><path d="M13.5,11 L86.729,11 A3.75,3.75 0 0 1 89.229,13.5 L96.229,33.297 L237.5,33.297 A2.5,2.5 0 0 1 240,35.797 L240,209.09 A2.5,2.5 0 0 1 237.5,211.59 L13.5,211.59 A2.5,2.5 0 0 1 11,209.09 L11,13.5 A2.5,2.5 0 0 1 13.5,11" style="stroke:#000;stroke-width:1;" fill="#FFF"/><line x1="11" y1="33.297" x2="96.229" y2="33.297" style="stroke:#000;stroke-width:1;"/><text x="15" y="25.995" fill="#000" font-size="14" textLength="72.229" font-weight="700" font-family="'Arial'">Frontend</text></g><!--cluster Backend--><g class="cluster" data-qualified-name="Backend" id="ent0005" data-source-line="11"><path d="M17.5,260.59 L85.711,260.59 A3.75,3.75 0 0 1 88.211,263.09 L95.211,282.887 L538.5,282.887 A2.5,2.5 0 0 1 541,285.387 L541,571.98 A2.5,2.5 0 0 1 538.5,574.48 L17.5,574.48 A2.5,2.5 0 0 1 15,571.98 L15,263.09 A2.5,2.5 0 0 1 17.5,260.59" style="stroke:#000;stroke-width:1;" fill="#FFF"/><line x1="15" y1="282.887" x2="95.211" y2="282.887" style="stroke:#000;stroke-width:1;"/><text x="19" y="275.585" fill="#000" font-size="14" textLength="67.211" font-weight="700" font-family="'Arial'">Backend</text></g><!--cluster Data--><g class="cluster" data-qualified-name="Data" id="ent0011" data-source-line="19"><path d="M190.5,623.48 L228.708,623.48 A3.75,3.75 0 0 1 231.208,625.98 L238.208,645.777 L463.5,645.777 A2.5,2.5 0 0 1 466,648.277 L466,708.28 A2.5,2.5 0 0 1 463.5,710.78 L190.5,710.78 A2.5,2.5 0 0 1 188,708.28 L188,625.98 A2.5,2.5 0 0 1 190.5,623.48" style="stroke:#000;stroke-width:1;" fill="#FFF"/><line x1="188" y1="645.777" x2="238.208" y2="645.777" style="stroke:#000;stroke-width:1;"/><text x="192" y="638.475" fill="#000" font-size="14" textLength="37.208" font-weight="700" font-family="'Arial'">Data</text></g><!--entity Vue--><g class="entity" data-qualified-name="Frontend.Vue" id="ent0002" data-source-line="6"><rect x="30.11" y="159.3" width="91.777" height="36.297" fill="#FFF" style="stroke:#000;stroke-width:1;" rx="2.5" ry="2.5"/><text x="40.11" y="182.295" fill="#000" font-size="14" textLength="71.777" font-family="'Arial'">Vue 3 SPA</text></g><!--entity Map--><g class="entity" data-qualified-name="Frontend.Map" id="ent0003" data-source-line="7"><rect x="27.05" y="46" width="101.908" height="36.297" fill="#FFF" style="stroke:#000;stroke-width:1;" rx="2.5" ry="2.5"/><text x="37.05" y="68.995" fill="#000" font-size="14" textLength="81.908" font-family="'Arial'">Leaflet Map</text></g><!--entity Nginx--><g class="entity" data-qualified-name="Frontend.Nginx" id="ent0004" data-source-line="8"><rect x="163.8" y="46" width="60.407" height="36.297" fill="#FFF" style="stroke:#000;stroke-width:1;" rx="2.5" ry="2.5"/><text x="173.8" y="68.995" fill="#000" font-size="14" textLength="40.407" font-family="'Arial'">Nginx</text></g><!--entity API--><g class="entity" data-qualified-name="Backend.API" id="ent0006" data-source-line="12"><rect x="137.71" y="295.59" width="124.576" height="36.297" fill="#FFF" style="stroke:#000;stroke-width:1;" rx="2.5" ry="2.5"/><text x="147.71" y="318.585" fill="#000" font-size="14" textLength="104.576" font-family="'Arial'">FastAPI Routes</text></g><!--entity Auth--><g class="entity" data-qualified-name="Backend.Auth" id="ent0007" data-source-line="13"><rect x="30.92" y="408.89" width="108.17" height="36.297" fill="#FFF" style="stroke:#000;stroke-width:1;" rx="2.5" ry="2.5"/><text x="40.92" y="431.885" fill="#000" font-size="14" textLength="88.17" font-family="'Arial'">Auth Module</text></g><!--entity EventService--><g class="entity" data-qualified-name="Backend.EventService" id="ent0008" data-source-line="14"><rect x="173.85" y="408.89" width="116.298" height="36.297" fill="#FFF" style="stroke:#000;stroke-width:1;" rx="2.5" ry="2.5"/><text x="183.85" y="431.885" fill="#000" font-size="14" textLength="96.298" font-family="'Arial'">Event Service</text></g><!--entity ImageService--><g class="entity" data-qualified-name="Backend.ImageService" id="ent0009" data-source-line="15"><rect x="329.98" y="408.89" width="120.037" height="36.297" fill="#FFF" style="stroke:#000;stroke-width:1;" rx="2.5" ry="2.5"/><text x="339.98" y="431.885" fill="#000" font-size="14" textLength="100.037" font-family="'Arial'">Image Service</text></g><!--entity ODM--><g class="entity" data-qualified-name="Backend.ODM" id="ent0010" data-source-line="16"><rect x="160.36" y="522.19" width="153.28" height="36.297" fill="#FFF" style="stroke:#000;stroke-width:1;" rx="2.5" ry="2.5"/><text x="170.36" y="545.185" fill="#000" font-size="14" textLength="133.28" font-family="'Arial'">MongoEngine ODM</text></g><!--entity Mongo--><g class="entity" data-qualified-name="Data.Mongo" id="ent0012" data-source-line="20"><rect x="204.32" y="658.48" width="87.354" height="36.297" fill="#FFF" style="stroke:#000;stroke-width:1;" rx="2.5" ry="2.5"/><text x="214.32" y="681.475" fill="#000" font-size="14" textLength="67.354" font-family="'Arial'">MongoDB</text></g><!--entity Images--><g class="entity" data-qualified-name="Data.Images" id="ent0013" data-source-line="21"><rect x="326.46" y="658.48" width="123.072" height="36.297" fill="#FFF" style="stroke:#000;stroke-width:1;" rx="2.5" ry="2.5"/><text x="336.46" y="681.475" fill="#000" font-size="14" textLength="103.072" font-family="'Arial'">Image Storage</text></g><!--link Nginx to Vue--><g class="link" data-entity-1="ent0004" data-entity-2="ent0002" id="lnk14" data-source-line="24" data-link-type="dependency"><path d="M163.55,76.08 C157.73,78.16 151.68,80.3 146,82.3 C107.41,95.84 82.74,78.99 59,112.3 C49.17,126.09 53.766,140.839 61.566,154.609" style="stroke:#000;stroke-width:1;" fill="none" id="Nginx-to-Vue"/><polygon points="64.03,158.96,63.075,149.158,61.566,154.609,56.114,153.101,64.03,158.96" fill="#000" style="stroke:#000;stroke-width:1;stroke-linejoin:miter;stroke-miterlimit:10;"/><text x="60" y="125.367" fill="#000" font-size="13" textLength="113.109" font-family="'Arial'">serves static files</text></g><!--link Nginx to API--><g class="link" data-entity-1="ent0004" data-entity-2="ent0006" id="lnk15" data-source-line="25" data-link-type="dependency"><path d="M194.42,82.56 C195.52,128.02 198.359,244.911 199.459,290.351" style="stroke:#000;stroke-width:1;" fill="none" id="Nginx-to-API"/><polygon points="199.58,295.35,203.361,286.256,199.459,290.351,195.363,286.449,199.58,295.35" fill="#000" style="stroke:#000;stroke-width:1;stroke-linejoin:miter;stroke-miterlimit:10;"/><text x="294.979" y="174.507" fill="#000" font-size="13" textLength="86.849" font-family="'Arial'">proxies /api/*</text><text x="198" y="189.64" fill="#000" font-size="13" textLength="280.808" font-family="'Arial'">(signed image URLs are public, short-lived)</text></g><!--link Nginx to API--><g class="link" data-entity-1="ent0004" data-entity-2="ent0006" id="lnk16" data-source-line="26" data-link-type="dependency"><path d="M224.57,64.29 C286.33,64.44 425.31,74.67 487,159.3 C549.74,245.36 369.416,287.075 267.356,303.515" style="stroke:#000;stroke-width:1;" fill="none" id="Nginx-to-API-1"/><polygon points="262.42,304.31,271.942,306.828,267.356,303.515,270.669,298.93,262.42,304.31" fill="#000" style="stroke:#000;stroke-width:1;stroke-linejoin:miter;stroke-miterlimit:10;"/><text x="562.166" y="174.507" fill="#000" font-size="13" textLength="114.283" font-family="'Arial'">proxies /images/*</text><text x="500" y="189.64" fill="#000" font-size="13" textLength="238.615" font-family="'Arial'">(Basic Auth protected map overlays)</text></g><!--link Vue to API--><g class="link" data-entity-1="ent0002" data-entity-2="ent0006" id="lnk17" data-source-line="27" data-link-type="dependency"><path d="M73.09,195.85 C71.65,210.05 71.84,230.08 81,244.59 C95.87,268.15 117.434,282.372 141.434,293.082" style="stroke:#000;stroke-width:1;" fill="none" id="Vue-to-API"/><polygon points="146,295.12,139.411,287.8,141.434,293.082,136.151,295.105,146,295.12" fill="#000" style="stroke:#000;stroke-width:1;stroke-linejoin:miter;stroke-miterlimit:10;"/><text x="82" y="240.657" fill="#000" font-size="13" textLength="91.381" font-family="'Arial'">REST API calls</text></g><!--link API to Auth--><g class="link" data-entity-1="ent0006" data-entity-2="ent0007" id="lnk18" data-source-line="28" data-link-type="dependency"><path d="M137.26,329.44 C120.05,336.48 103.09,346.81 92,361.89 C82.18,375.25 80.988,389.615 82.058,403.565" style="stroke:#000;stroke-width:1;" fill="none" id="API-to-Auth"/><polygon points="82.44,408.55,85.74,399.27,82.058,403.565,77.763,399.882,82.44,408.55" fill="#000" style="stroke:#000;stroke-width:1;stroke-linejoin:miter;stroke-miterlimit:10;"/><text x="93" y="374.957" fill="#000" font-size="13" textLength="92.765" font-family="'Arial'">JWT validation</text></g><!--link API to EventService--><g class="link" data-entity-1="ent0006" data-entity-2="ent0008" id="lnk19" data-source-line="29" data-link-type="dependency"><path d="M195.84,332.35 C193.52,345.51 192,363.75 197,378.89 C200.65,389.92 204.766,396.659 211.786,404.979" style="stroke:#000;stroke-width:1;" fill="none" id="API-to-EventService"/><polygon points="215.01,408.8,212.263,399.342,211.786,404.979,206.149,404.501,215.01,408.8" fill="#000" style="stroke:#000;stroke-width:1;stroke-linejoin:miter;stroke-miterlimit:10;"/><text x="198" y="374.957" fill="#000" font-size="13" textLength="78.793" font-family="'Arial'">event CRUD</text></g><!--link API to ImageService--><g class="link" data-entity-1="ent0006" data-entity-2="ent0009" id="lnk20" data-source-line="30" data-link-type="dependency"><path d="M230.02,332.17 C245.3,341.05 264.15,352.03 281,361.89 C307.91,377.64 334.193,393.11 356.103,406.03" style="stroke:#000;stroke-width:1;" fill="none" id="API-to-ImageService"/><polygon points="360.41,408.57,354.689,400.553,356.103,406.03,350.626,407.444,360.41,408.57" fill="#000" style="stroke:#000;stroke-width:1;stroke-linejoin:miter;stroke-miterlimit:10;"/><text x="308" y="374.957" fill="#000" font-size="13" textLength="203.328" font-family="'Arial'">upload, signing, secure serving</text></g><!--link EventService to ODM--><g class="link" data-entity-1="ent0008" data-entity-2="ent0010" id="lnk21" data-source-line="31" data-link-type="dependency"><path d="M228.41,445.48 C226.23,458.4 224.18,476.41 226,492.19 C227.15,502.21 228.372,508.353 230.692,517.203" style="stroke:#000;stroke-width:1;" fill="none" id="EventService-to-ODM"/><polygon points="231.96,522.04,233.547,512.32,230.692,517.203,225.809,514.348,231.96,522.04" fill="#000" style="stroke:#000;stroke-width:1;stroke-linejoin:miter;stroke-miterlimit:10;"/><text x="227" y="488.257" fill="#000" font-size="13" textLength="138.912" font-family="'Arial'">document operations</text></g><!--link ImageService to Images--><g class="link" data-entity-1="ent0009" data-entity-2="ent0013" id="lnk22" data-source-line="32" data-link-type="dependency"><path d="M389.86,445.45 C389.49,490.91 388.551,607.8 388.181,653.24" style="stroke:#000;stroke-width:1;" fill="none" id="ImageService-to-Images"/><polygon points="388.14,658.24,392.213,649.273,388.181,653.24,384.213,649.208,388.14,658.24" fill="#000" style="stroke:#000;stroke-width:1;stroke-linejoin:miter;stroke-miterlimit:10;"/><text x="390" y="544.897" fill="#000" font-size="13" textLength="73.315" font-family="'Arial'">file storage</text></g><!--link ODM to Mongo--><g class="link" data-entity-1="ent0010" data-entity-2="ent0012" id="lnk23" data-source-line="33" data-link-type="dependency"><path d="M238.44,558.89 C240.55,584.63 244.042,627.347 246.152,653.087" style="stroke:#000;stroke-width:1;" fill="none" id="ODM-to-Mongo"/><polygon points="246.56,658.07,249.811,648.773,246.152,653.087,241.838,649.427,246.56,658.07" fill="#000" style="stroke:#000;stroke-width:1;stroke-linejoin:miter;stroke-miterlimit:10;"/><text x="243" y="603.547" fill="#000" font-size="13" textLength="48.217" font-family="'Arial'">queries</text></g><?plantuml-src VL8zRzim4DtrAwwQsg96XcuP2jYr3II8qy1Esg7DS97ECX6APFaX92Zwttiysh3K8TjzFBvxTu_lue5w0gTHcIeyA-FGOm-DxPqrPE8klce2Jqr4qsaQGLhQOz9nRKsyHQQevrwXhglAOVEC7HVMddjasXh-L00_loU2px2xcpy21aaVS_c6SAyfmWPTQUGWDsuxPLvAgOJLtn7vWeCpznf3dDzTmTQcIA4yubnuvYaUO6FRfEdOu89qLWDl23loWsgEFIcTAXbprUTn4uoKnfYDDPrT6HP9y6svAQWSJ1GlCMAHstBqX85hydAvgClYESc48LelJux3IrgVXmTXFbreDljIpWcN45WM1MR0g1hOAqrXYijNOPppzaKny0ATklZuoxmFgZFKWfA93zkR0EZvNwGdhPfF40xMnvbM0xKVtkOJWY2K2moiGSxFxSX_Y0VqwC0Ev3M-1gOIsMEYxMft3zdA1hLcxL8kW6mR8wv_tCE0Ml4LbJLZnCGyHfBu-tNxi1oZ9lOnAZbjiUKT-GBAT1nGatZtV4hEg_zeXKDSleJMDgdFCwmZBt9OyPJ_F3Ba5zcHaxzLeH54yPu1lnDvFkG_?></g></svg>