<svg xmlns="http://www.w3.org/2000/svg" xmlns:xlink="http://www.w3.org/1999/xlink" version="1.1" data-diagram-type="SEQUENCE" style="width:734px;height:696px;background:#FFFFFF;" width="734px" height="696px" viewBox="0 0 734 696" zoomAndPan="magnify" preserveAspectRatio="none" contentStyleType="text/css"><?plantuml 1.2026.7beta3?><defs/><g><rect x="106.1943" y="215.8281" width="611.9971" height="380.5313" fill="#FFFFFF" style="stroke:#000000;stroke-width:1;"/><rect x="106.1943" y="552.4219" width="611.9971" height="43.9375" fill="#FFFFFF" style="stroke:none;stroke-width:1;"/><g class="participant-lifeline" data-qualified-name="Admin" data-entity-uid="part1" id="part1-lifeline" data-source-line="3"><g><title>Admin</title><rect x="31.4321" y="82.2969" width="8" height="531.0625" fill="#000000" fill-opacity="0.00000"/><line x1="35" y1="82.2969" x2="35" y2="613.3594" style="stroke:#000000;stroke-width:1;stroke-dasharray:5,5;"/></g></g><g class="participant-lifeline" data-qualified-name="Frontend" data-entity-uid="part2" id="part2-lifeline" data-source-line="4"><g><title>Vue SPA</title><rect x="156.4043" y="82.2969" width="8" height="531.0625" fill="#000000" fill-opacity="0.00000"/><line x1="160.1943" y1="82.2969" x2="160.1943" y2="613.3594" style="stroke:#000000;stroke-width:1;stroke-dasharray:5,5;"/></g></g><g class="participant-lifeline" data-qualified-name="API" data-entity-uid="part3" id="part3-lifeline" data-source-line="5"><g><title>FastAPI</title><rect x="392.4351" y="82.2969" width="8" height="531.0625" fill="#000000" fill-opacity="0.00000"/><line x1="395.6533" y1="82.2969" x2="395.6533" y2="613.3594" style="stroke:#000000;stroke-width:1;stroke-dasharray:5,5;"/></g></g><g class="participant-lifeline" data-qualified-name="Auth" data-entity-uid="part4" id="part4-lifeline" data-source-line="6"><g><title>Auth Module</title><rect x="561.752" y="82.2969" width="8" height="531.0625" fill="#000000" fill-opacity="0.00000"/><line x1="565.667" y1="82.2969" x2="565.667" y2="613.3594" style="stroke:#000000;stroke-width:1;stroke-dasharray:5,5;"/></g></g><g class="participant-lifeline" data-qualified-name="DB" data-entity-uid="part5" id="part5-lifeline" data-source-line="7"><g><title>MongoDB</title><rect x="667.5142" y="82.2969" width="8" height="531.0625" fill="#000000" fill-opacity="0.00000"/><line x1="670.8369" y1="82.2969" x2="670.8369" y2="613.3594" style="stroke:#000000;stroke-width:1;stroke-dasharray:5,5;"/></g></g><g class="participant participant-head" data-qualified-name="Admin" data-entity-uid="part1" id="part1-head" data-source-line="3"><text x="10" y="78.9951" fill="#000000" font-size="14" lengthAdjust="spacing" textLength="44.8643" font-family="Verdana">Admin</text><ellipse cx="35.4321" cy="14" rx="8" ry="8" fill="#FFFFFF" style="stroke:#000000;stroke-width:1;"/><path d="M35.4321,22 L35.4321,49 M22.4321,30 L48.4321,30 M35.4321,49 L22.4321,64 M35.4321,49 L48.4321,64" style="stroke:#000000;stroke-width:1;" fill="none"/></g><g class="participant participant-tail" data-qualified-name="Admin" data-entity-uid="part1" id="part1-tail" data-source-line="3"><text x="10" y="625.3545" fill="#000000" font-size="14" lengthAdjust="spacing" textLength="44.8643" font-family="Verdana">Admin</text><ellipse cx="35.4321" cy="637.6563" rx="8" ry="8" fill="#FFFFFF" style="stroke:#000000;stroke-width:1;"/><path d="M35.4321,645.6563 L35.4321,672.6563 M22.4321,653.6563 L48.4321,653.6563 M35.4321,672.6563 L22.4321,687.6563 M35.4321,672.6563 L48.4321,687.6563" style="stroke:#000000;stroke-width:1;" fill="none"/></g><g class="participant participant-head" data-qualified-name="Frontend" data-entity-uid="part2" id="part2-head" data-source-line="4"><rect x="126.1943" y="50" width="68.4199" height="26.2969" fill="#FFFFFF" style="stroke:#000000;stroke-width:1;" rx="2.5" ry="2.5"/><text x="131.1943" y="67.9951" fill="#000000" font-size="14" lengthAdjust="spacing" textLength="58.4199" font-family="Verdana">Vue SPA</text></g><g class="participant participant-tail" data-qualified-name="Frontend" data-entity-uid="part2" id="part2-tail" data-source-line="4"><rect x="126.1943" y="617.3594" width="68.4199" height="26.2969" fill="#FFFFFF" style="stroke:#000000;stroke-width:1;" rx="2.5" ry="2.5"/><text x="131.1943" y="635.3545" fill="#000000" font-size="14" lengthAdjust="spacing" textLength="58.4199" font-family="Verdana">Vue SPA</text></g><g class="participant participant-head" data-qualified-name="API" data-entity-uid="part3" id="part3-head" data-source-line="5"><rect x="365.6533" y="50" width="61.5635" height="26.2969" fill="#FFFFFF" style="stroke:#000000;stroke-width:1;" rx="2.5" ry="2.5"/><text x="370.6533" y="67.9951" fill="#000000" font-size="14" lengthAdjust="spacing" textLength="51.5635" font-family="Verdana">FastAPI</text></g><g class="participant participant-tail" data-qualified-name="API" data-entity-uid="part3" id="part3-tail" data-source-line="5"><rect x="365.6533" y="617.3594" width="61.5635" height="26.2969" fill="#FFFFFF" style="stroke:#000000;stroke-width:1;" rx="2.5" ry="2.5"/><text x="370.6533" y="635.3545" fill="#000000" font-size="14" lengthAdjust="spacing" textLength="51.5635" font-family="Verdana">FastAPI</text></g><g class="participant participant-head" data-qualified-name="Auth" data-entity-uid="part4" id="part4-head" data-source-line="6"><rect x="516.667" y="50" width="98.1699" height="26.2969" fill="#FFFFFF" style="stroke:#000000;stroke-width:1;" rx="2.5" ry="2.5"/><text x="521.667" y="67.9951" fill="#000000" font-size="14" lengthAdjust="spacing" textLength="88.1699" font-family="Verdana">Auth Module</text></g><g class="participant participant-tail" data-qualified-name="Auth" data-entity-uid="part4" id="part4-tail" data-source-line="6"><rect x="516.667" y="617.3594" width="98.1699" height="26.2969" fill="#FFFFFF" style="stroke:#000000;stroke-width:1;" rx="2.5" ry="2.5"/><text x="521.667" y="635.3545" fill="#000000" font-size="14" lengthAdjust="spacing" textLength="88.1699" font-family="Verdana">Auth Module</text></g><g class="participant participant-head" data-qualified-name="DB" data-entity-uid="part5" id="part5-head" data-source-line="7"><text x="634.8369" y="78.9951" fill="#000000" font-size="14" lengthAdjust="spacing" textLength="67.3545" font-family="Verdana">MongoDB</text><path d="M653.5142,30 C653.5142,20 671.5142,20 671.5142,20 C671.5142,20 689.5142,20 689.5142,30 L689.5142,56 C689.5142,66 671.5142,66 671.5142,66 C671.5142,66 653.5142,66 653.5142,56 L653.5142,30" style="stroke:#000000;stroke-width:1;" fill="#FFFFFF"/><path d="M653.5142,30 C653.5142,40 671.5142,40 671.5142,40 C671.5142,40 689.5142,40 689.5142,30" style="stroke:#000000;stroke-width:1;" fill="none"/></g><g class="participant participant-tail" data-qualified-name="DB" data-entity-uid="part5" id="part5-tail" data-source-line="7"><text x="634.8369" y="625.3545" fill="#000000" font-size="14" lengthAdjust="spacing" textLength="67.3545" font-family="Verdana">MongoDB</text><path d="M653.5142,638.6563 C653.5142,628.6563 671.5142,628.6563 671.5142,628.6563 C671.5142,628.6563 689.5142,628.6563 689.5142,638.6563 L689.5142,664.6563 C689.5142,674.6563 671.5142,674.6563 671.5142,674.6563 C671.5142,674.6563 653.5142,674.6563 653.5142,664.6563 L653.5142,638.6563" style="stroke:#000000;stroke-width:1;" fill="#FFFFFF"/><path d="M653.5142,638.6563 C653.5142,648.6563 671.5142,648.6563 671.5142,648.6563 C671.5142,648.6563 689.5142,648.6563 689.5142,638.6563" style="stroke:#000000;stroke-width:1;" fill="none"/></g><g class="message" data-entity-1="part1" data-entity-2="part2" id="msg1" data-source-line="9"><polygon points="148.4043,109.4297,158.4043,113.4297,148.4043,117.4297,152.4043,113.4297" fill="#000000" style="stroke:#000000;stroke-width:1;stroke-linejoin:miter;stroke-miterlimit:10;"/><line x1="35.4321" y1="113.4297" x2="154.4043" y2="113.4297" style="stroke:#000000;stroke-width:1;"/><text x="42.4321" y="108.3638" fill="#000000" font-size="13" lengthAdjust="spacing" textLength="100.9722" font-family="Verdana">Enter password</text></g><g class="message" data-entity-1="part2" data-entity-2="part3" id="msg2" data-source-line="10"><polygon points="384.4351,138.5625,394.4351,142.5625,384.4351,146.5625,388.4351,142.5625" fill="#000000" style="stroke:#000000;stroke-width:1;stroke-linejoin:miter;stroke-miterlimit:10;"/><line x1="160.4043" y1="142.5625" x2="390.4351" y2="142.5625" style="stroke:#000000;stroke-width:1;"/><text x="167.4043" y="137.4966" fill="#000000" font-size="13" lengthAdjust="spacing" textLength="143.7681" font-family="Verdana">POST /api/admin/login</text></g><g class="message" data-entity-1="part3" data-entity-2="part4" id="msg3" data-source-line="11"><polygon points="553.752,167.6953,563.752,171.6953,553.752,175.6953,557.752,171.6953" fill="#000000" style="stroke:#000000;stroke-width:1;stroke-linejoin:miter;stroke-miterlimit:10;"/><line x1="396.4351" y1="171.6953" x2="559.752" y2="171.6953" style="stroke:#000000;stroke-width:1;"/><text x="403.4351" y="166.6294" fill="#000000" font-size="13" lengthAdjust="spacing" textLength="115.5083" font-family="Verdana">verify_password()</text></g><g class="message" data-entity-1="part4" data-entity-2="part3" id="msg4" data-source-line="12"><polygon points="407.4351,196.8281,397.4351,200.8281,407.4351,204.8281,403.4351,200.8281" fill="#000000" style="stroke:#000000;stroke-width:1;stroke-linejoin:miter;stroke-miterlimit:10;"/><line x1="401.4351" y1="200.8281" x2="564.752" y2="200.8281" style="stroke:#000000;stroke-width:1;stroke-dasharray:2,2;"/><text x="413.4351" y="195.7622" fill="#000000" font-size="13" lengthAdjust="spacing" textLength="61.9849" font-family="Verdana">true/false</text></g><path d="M106.1943,215.8281 L170.6372,215.8281 L170.6372,222.9609 L160.6372,232.9609 L106.1943,232.9609 L106.1943,215.8281" style="stroke:#000000;stroke-width:1;" fill="#FFFFFF"/><rect x="106.1943" y="215.8281" width="611.9971" height="380.5313" fill="none" style="stroke:#000000;stroke-width:1;"/><text x="121.1943" y="228.895" fill="#000000" font-size="13" lengthAdjust="spacing" textLength="19.4429" font-weight="700" font-family="Verdana">alt</text><text x="185.6372" y="228.0386" fill="#000000" font-size="11" lengthAdjust="spacing" textLength="103.4902" font-weight="700" font-family="Verdana">[Password valid]</text><g class="message" data-entity-1="part3" data-entity-2="part4" id="msg5" data-source-line="15"><polygon points="553.752,250.0938,563.752,254.0938,553.752,258.0938,557.752,254.0938" fill="#000000" style="stroke:#000000;stroke-width:1;stroke-linejoin:miter;stroke-miterlimit:10;"/><line x1="396.4351" y1="254.0938" x2="559.752" y2="254.0938" style="stroke:#000000;stroke-width:1;"/><text x="403.4351" y="249.0278" fill="#000000" font-size="13" lengthAdjust="spacing" textLength="145.3169" font-family="Verdana">create_access_token()</text></g><g class="message" data-entity-1="part4" data-entity-2="part3" id="msg6" data-source-line="16"><polygon points="407.4351,279.2266,397.4351,283.2266,407.4351,287.2266,403.4351,283.2266" fill="#000000" style="stroke:#000000;stroke-width:1;stroke-linejoin:miter;stroke-miterlimit:10;"/><line x1="401.4351" y1="283.2266" x2="564.752" y2="283.2266" style="stroke:#000000;stroke-width:1;stroke-dasharray:2,2;"/><text x="413.4351" y="278.1606" fill="#000000" font-size="13" lengthAdjust="spacing" textLength="65.5776" font-family="Verdana">JWT token</text></g><g class="message" data-entity-1="part3" data-entity-2="part2" id="msg7" data-source-line="17"><polygon points="171.4043,308.3594,161.4043,312.3594,171.4043,316.3594,167.4043,312.3594" fill="#000000" style="stroke:#000000;stroke-width:1;stroke-linejoin:miter;stroke-miterlimit:10;"/><line x1="165.4043" y1="312.3594" x2="395.4351" y2="312.3594" style="stroke:#000000;stroke-width:1;stroke-dasharray:2,2;"/><text x="177.4043" y="307.2935" fill="#000000" font-size="13" lengthAdjust="spacing" textLength="192.5498" font-family="Verdana">{ access_token, token_type }</text></g><g class="message" data-entity-1="part2" data-entity-2="part2" id="msg8" data-source-line="18"><line x1="160.4043" y1="341.4922" x2="202.4043" y2="341.4922" style="stroke:#000000;stroke-width:1;"/><line x1="202.4043" y1="341.4922" x2="202.4043" y2="354.4922" style="stroke:#000000;stroke-width:1;"/><line x1="161.4043" y1="354.4922" x2="202.4043" y2="354.4922" style="stroke:#000000;stroke-width:1;"/><polygon points="171.4043,350.4922,161.4043,354.4922,171.4043,358.4922,167.4043,354.4922" fill="#000000" style="stroke:#000000;stroke-width:1;stroke-linejoin:miter;stroke-miterlimit:10;"/><text x="167.4043" y="336.4263" fill="#000000" font-size="13" lengthAdjust="spacing" textLength="153.7466" font-family="Verdana">Store in sessionStorage</text></g><g class="message" data-entity-1="part2" data-entity-2="part3" id="msg9" data-source-line="19"><polygon points="384.4351,394.7578,394.4351,398.7578,384.4351,402.7578,388.4351,398.7578" fill="#000000" style="stroke:#000000;stroke-width:1;stroke-linejoin:miter;stroke-miterlimit:10;"/><line x1="160.4043" y1="398.7578" x2="390.4351" y2="398.7578" style="stroke:#000000;stroke-width:1;"/><text x="167.4043" y="378.5591" fill="#000000" font-size="13" lengthAdjust="spacing" textLength="102.7495" font-family="Verdana">GET /api/events</text><text x="167.4043" y="393.6919" fill="#000000" font-size="13" lengthAdjust="spacing" textLength="212.0308" font-family="Verdana">(Authorization: Bearer &lt;token>)</text></g><g class="message" data-entity-1="part3" data-entity-2="part4" id="msg10" data-source-line="20"><polygon points="553.752,423.8906,563.752,427.8906,553.752,431.8906,557.752,427.8906" fill="#000000" style="stroke:#000000;stroke-width:1;stroke-linejoin:miter;stroke-miterlimit:10;"/><line x1="396.4351" y1="427.8906" x2="559.752" y2="427.8906" style="stroke:#000000;stroke-width:1;"/><text x="403.4351" y="422.8247" fill="#000000" font-size="13" lengthAdjust="spacing" textLength="122.04" font-family="Verdana">get_admin_token()</text></g><g class="message" data-entity-1="part4" data-entity-2="part3" id="msg11" data-source-line="21"><polygon points="407.4351,453.0234,397.4351,457.0234,407.4351,461.0234,403.4351,457.0234" fill="#000000" style="stroke:#000000;stroke-width:1;stroke-linejoin:miter;stroke-miterlimit:10;"/><line x1="401.4351" y1="457.0234" x2="564.752" y2="457.0234" style="stroke:#000000;stroke-width:1;stroke-dasharray:2,2;"/><text x="413.4351" y="451.9575" fill="#000000" font-size="13" lengthAdjust="spacing" textLength="111.6807" font-family="Verdana">decoded payload</text></g><g class="message" data-entity-1="part3" data-entity-2="part5" id="msg12" data-source-line="22"><polygon points="659.5142,482.1563,669.5142,486.1563,659.5142,490.1563,663.5142,486.1563" fill="#000000" style="stroke:#000000;stroke-width:1;stroke-linejoin:miter;stroke-miterlimit:10;"/><line x1="396.4351" y1="486.1563" x2="665.5142" y2="486.1563" style="stroke:#000000;stroke-width:1;"/><text x="403.4351" y="481.0903" fill="#000000" font-size="13" lengthAdjust="spacing" textLength="98.3506" font-family="Verdana">Event.objects()</text></g><g class="message" data-entity-1="part5" data-entity-2="part3" id="msg13" data-source-line="23"><polygon points="407.4351,511.2891,397.4351,515.2891,407.4351,519.2891,403.4351,515.2891" fill="#000000" style="stroke:#000000;stroke-width:1;stroke-linejoin:miter;stroke-miterlimit:10;"/><line x1="401.4351" y1="515.2891" x2="670.5142" y2="515.2891" style="stroke:#000000;stroke-width:1;stroke-dasharray:2,2;"/><text x="413.4351" y="510.2231" fill="#000000" font-size="13" lengthAdjust="spacing" textLength="72.3633" font-family="Verdana">documents</text></g><g class="message" data-entity-1="part3" data-entity-2="part2" id="msg14" data-source-line="24"><polygon points="171.4043,540.4219,161.4043,544.4219,171.4043,548.4219,167.4043,544.4219" fill="#000000" style="stroke:#000000;stroke-width:1;stroke-linejoin:miter;stroke-miterlimit:10;"/><line x1="165.4043" y1="544.4219" x2="395.4351" y2="544.4219" style="stroke:#000000;stroke-width:1;stroke-dasharray:2,2;"/><text x="177.4043" y="539.356" fill="#000000" font-size="13" lengthAdjust="spacing" textLength="70.9541" font-family="Verdana">[EventOut]</text></g><line x1="106.1943" y1="553.4219" x2="718.1914" y2="553.4219" style="stroke:#000000;stroke-width:1;stroke-dasharray:2,2;"/><text x="111.1943" y="563.6323" fill="#000000" font-size="11" lengthAdjust="spacing" textLength="115.0918" font-weight="700" font-family="Verdana">[Password invalid]</text><g class="message" data-entity-1="part3" data-entity-2="part2" id="msg15" data-source-line="26"><polygon points="171.4043,584.3594,161.4043,588.3594,171.4043,592.3594,167.4043,588.3594" fill="#000000" style="stroke:#000000;stroke-width:1;stroke-linejoin:miter;stroke-miterlimit:10;"/><line x1="165.4043" y1="588.3594" x2="395.4351" y2="588.3594" style="stroke:#000000;stroke-width:1;stroke-dasharray:2,2;"/><text x="177.4043" y="583.2935" fill="#000000" font-size="13" lengthAdjust="spacing" textLength="116.2256" font-family="Verdana">401 Unauthorized</text></g><?plantuml-src TL5DImCn4BtdLumzLL1NmLEHGfTMKIWMwiT1PPbkfcjqcop9RAMA_ztPs6gtw2bCvhrvyzxiyJCj2AeIZLKAStOU1deXHOMUJMugj0oTkvfWEXbq00ESUsUPh6uZpZ7mO78P4VAscuEQds7iT5tIDq1gfP5nXe6WCtQsSCCqjeQfKd41EEp_IFLW9A-72aDuSrwhJQC1YLeF9jVJ6qYmCWasvAHqXNYGLaI8N0-MvCrybMrcTFTLNEjmCu9zJSaSoq0IHCamMGDXYQNH2g0rBVU4J1dcEOMGiNibAnC1sZElxcyWzZRqbgaFsAOVV2CpNbK4dqBODlbBcig922IV84pZR5DZGJlug7unMcT2Ix8S7cstsSvvyuuip1waX5vYFOl2_VrTZmLn5kFyrv-ct6dISfXLwN0hf64gDsjKZzpiXN8EaJnCjwWkhnVDMdz6yn39rpK_APAB_1x3sDOvMgJJunEujRZsI5h9xnS0?></g></svg>