<svg xmlns="http://www.w3.org/2000/svg" xmlns:xlink="http://www.w3.org/1999/xlink" version="1.1" data-diagram-type="CLASS" style="width:825px;height:736px;background:#FFFFFF;" width="825px" height="736px" viewBox="0 0 825 736" zoomAndPan="magnify" preserveAspectRatio="none" contentStyleType="text/css"><?plantuml 1.2026.7beta8?><defs/><g font-family="sans-serif" lengthAdjust="spacing"><!--class NewsItem--><g class="entity" data-qualified-name="NewsItem" id="ent0001" data-source-line="4"><rect x="12" y="571.79" width="168.734" height="125.484" fill="#FFF" style="stroke:#000;stroke-width:1;" rx="2.5" ry="2.5"/><ellipse cx="57.768" cy="585.79" rx="9" ry="9" fill="#FFF" style="stroke:#000;stroke-width:1;"/><path d="M60.736,591.431 Q60.158,591.728 59.518,591.868 Q58.877,592.024 58.174,592.024 Q55.674,592.024 54.346,590.384 Q53.033,588.728 53.033,585.603 Q53.033,582.478 54.346,580.821 Q55.674,579.165 58.174,579.165 Q58.877,579.165 59.518,579.321 Q60.174,579.478 60.736,579.774 L60.736,582.493 Q60.111,581.915 59.518,581.649 Q58.924,581.368 58.299,581.368 Q56.955,581.368 56.268,582.446 Q55.58,583.509 55.58,585.603 Q55.58,587.696 56.268,588.774 Q56.955,589.837 58.299,589.837 Q58.924,589.837 59.518,589.571 Q60.111,589.29 60.736,588.712 L60.736,591.431 Z " fill="#000"/><text x="75.268" y="590.637" fill="#000" font-size="14" textLength="69.699" font-family="Verdana">NewsItem</text><line x1="13" y1="599.79" x2="179.734" y2="599.79" style="stroke:#000;stroke-width:1;"/><text x="18" y="616.785" fill="#000" font-size="14" textLength="66.808" font-family="Verdana">+title: str</text><text x="18" y="633.082" fill="#000" font-size="14" textLength="128.071" font-family="Verdana">+url: Optional[str]</text><text x="18" y="649.379" fill="#000" font-size="14" textLength="155.688" font-family="Verdana">+author: Optional[str]</text><text x="18" y="665.676" fill="#000" font-size="14" textLength="153.699" font-family="Verdana">+extra: Optional[dict]</text><line x1="13" y1="672.978" x2="179.734" y2="672.978" style="stroke:#000;stroke-width:1;"/><text x="18" y="689.973" fill="#000" font-size="14" textLength="156.734" font-family="Verdana">+validate_extra_size()</text></g><!--class CarouselImage--><g class="entity" data-qualified-name="CarouselImage" id="ent0002" data-source-line="13"><rect x="215.67" y="588.09" width="199.394" height="92.891" fill="#FFF" style="stroke:#000;stroke-width:1;" rx="2.5" ry="2.5"/><ellipse cx="259.021" cy="602.09" rx="9" ry="9" fill="#FFF" style="stroke:#000;stroke-width:1;"/><path d="M261.99,607.731 Q261.412,608.028 260.771,608.168 Q260.13,608.324 259.427,608.324 Q256.927,608.324 255.599,606.684 Q254.287,605.028 254.287,601.903 Q254.287,598.778 255.599,597.121 Q256.927,595.465 259.427,595.465 Q260.13,595.465 260.771,595.621 Q261.427,595.778 261.99,596.074 L261.99,598.793 Q261.365,598.215 260.771,597.949 Q260.177,597.668 259.552,597.668 Q258.209,597.668 257.521,598.746 Q256.834,599.809 256.834,601.903 Q256.834,603.996 257.521,605.074 Q258.209,606.137 259.552,606.137 Q260.177,606.137 260.771,605.871 Q261.365,605.59 261.99,605.012 L261.99,607.731 Z " fill="#000"/><text x="276.521" y="606.937" fill="#000" font-size="14" textLength="105.191" font-family="Verdana">CarouselImage</text><line x1="216.67" y1="616.09" x2="414.064" y2="616.09" style="stroke:#000;stroke-width:1;"/><text x="221.67" y="633.085" fill="#000" font-size="14" textLength="57.955" font-family="Verdana">+url: str</text><text x="221.67" y="649.382" fill="#000" font-size="14" textLength="181.87" font-family="Verdana">+source_url: Optional[str]</text><text x="221.67" y="665.679" fill="#000" font-size="14" textLength="187.394" font-family="Verdana">+description: Optional[str]</text><line x1="216.67" y1="672.981" x2="414.064" y2="672.981" style="stroke:#000;stroke-width:1;"/></g><!--class Event--><g class="entity" data-qualified-name="Event" id="ent0003" data-source-line="19"><rect x="153.37" y="263.38" width="323.985" height="206.969" fill="#FFF" style="stroke:#000;stroke-width:1;" rx="2.5" ry="2.5"/><ellipse cx="291.559" cy="277.38" rx="9" ry="9" fill="#FFF" style="stroke:#000;stroke-width:1;"/><path d="M294.528,283.021 Q293.95,283.318 293.309,283.458 Q292.669,283.614 291.966,283.614 Q289.466,283.614 288.138,281.974 Q286.825,280.318 286.825,277.193 Q286.825,274.068 288.138,272.411 Q289.466,270.755 291.966,270.755 Q292.669,270.755 293.309,270.911 Q293.966,271.068 294.528,271.364 L294.528,274.083 Q293.903,273.505 293.309,273.239 Q292.716,272.958 292.091,272.958 Q290.747,272.958 290.059,274.036 Q289.372,275.099 289.372,277.193 Q289.372,279.286 290.059,280.364 Q290.747,281.427 292.091,281.427 Q292.716,281.427 293.309,281.161 Q293.903,280.88 294.528,280.302 L294.528,283.021 Z " fill="#000"/><text x="309.059" y="282.227" fill="#000" font-size="14" textLength="40.106" font-family="Verdana">Event</text><line x1="154.37" y1="291.38" x2="476.355" y2="291.38" style="stroke:#000;stroke-width:1;"/><text x="159.37" y="308.375" fill="#000" font-size="14" textLength="92.285" font-family="Verdana">+id: ObjectId</text><text x="159.37" y="324.672" fill="#000" font-size="14" textLength="123.382" font-family="Verdana">+title: StringField</text><text x="159.37" y="340.969" fill="#000" font-size="14" textLength="153.952" font-family="Verdana">+date: DateTimeField</text><text x="159.37" y="357.266" fill="#000" font-size="14" textLength="125.084" font-family="Verdana">+points: DictField</text><text x="159.37" y="373.563" fill="#000" font-size="14" textLength="118.809" font-family="Verdana">+extra: DictField</text><text x="159.37" y="389.859" fill="#000" font-size="14" textLength="129.603" font-family="Verdana">+images: ListField</text><text x="159.37" y="406.156" fill="#000" font-size="14" textLength="311.985" font-family="Verdana">+carousel_images: ListField[CarouselImage]</text><text x="159.37" y="422.453" fill="#000" font-size="14" textLength="195.556" font-family="Verdana">+news: ListField[NewsItem]</text><line x1="154.37" y1="429.755" x2="476.355" y2="429.755" style="stroke:#000;stroke-width:1;"/><text x="159.37" y="446.75" fill="#000" font-size="14" textLength="55.426" font-family="Verdana">+save()</text><text x="159.37" y="463.047" fill="#000" font-size="14" textLength="66.76" font-family="Verdana">+delete()</text></g><!--class EventCreate--><g class="entity" data-qualified-name="EventCreate" id="ent0004" data-source-line="33"><rect x="134.98" y="12" width="360.77" height="174.375" fill="#FFF" style="stroke:#000;stroke-width:1;" rx="2.5" ry="2.5"/><ellipse cx="268.148" cy="26" rx="9" ry="9" fill="#FFF" style="stroke:#000;stroke-width:1;"/><path d="M271.117,31.641 Q270.539,31.938 269.898,32.078 Q269.258,32.234 268.555,32.234 Q266.055,32.234 264.727,30.594 Q263.414,28.938 263.414,25.813 Q263.414,22.688 264.727,21.031 Q266.055,19.375 268.555,19.375 Q269.258,19.375 269.898,19.531 Q270.555,19.688 271.117,19.984 L271.117,22.703 Q270.492,22.125 269.898,21.859 Q269.305,21.578 268.68,21.578 Q267.336,21.578 266.648,22.656 Q265.961,23.719 265.961,25.813 Q265.961,27.906 266.648,28.984 Q267.336,30.047 268.68,30.047 Q269.305,30.047 269.898,29.781 Q270.492,29.5 271.117,28.922 L271.117,31.641 Z " fill="#000"/><text x="285.648" y="30.847" fill="#000" font-size="14" textLength="86.933" font-family="Verdana">EventCreate</text><line x1="135.98" y1="40" x2="494.75" y2="40" style="stroke:#000;stroke-width:1;"/><text x="140.98" y="56.995" fill="#000" font-size="14" textLength="66.808" font-family="Verdana">+title: str</text><text x="140.98" y="73.292" fill="#000" font-size="14" textLength="71.005" font-family="Verdana">+date: str</text><text x="140.98" y="89.589" fill="#000" font-size="14" textLength="159.975" font-family="Verdana">+points: Optional[dict]</text><text x="140.98" y="105.886" fill="#000" font-size="14" textLength="153.699" font-family="Verdana">+extra: Optional[dict]</text><text x="140.98" y="122.183" fill="#000" font-size="14" textLength="162.477" font-family="Verdana">+images: Optional[list]</text><text x="140.98" y="138.479" fill="#000" font-size="14" textLength="348.77" font-family="Verdana">+carousel_images: Optional[List[CarouselImage]]</text><text x="140.98" y="154.776" fill="#000" font-size="14" textLength="232.34" font-family="Verdana">+news: Optional[List[NewsItem]]</text><line x1="135.98" y1="162.078" x2="494.75" y2="162.078" style="stroke:#000;stroke-width:1;"/><text x="140.98" y="179.073" fill="#000" font-size="14" textLength="156.734" font-family="Verdana">+validate_extra_size()</text></g><!--class EventOut--><g class="entity" data-qualified-name="EventOut" id="ent0005" data-source-line="45"><rect x="449.98" y="547.34" width="360.77" height="174.375" fill="#FFF" style="stroke:#000;stroke-width:1;" rx="2.5" ry="2.5"/><ellipse cx="593.871" cy="561.34" rx="9" ry="9" fill="#FFF" style="stroke:#000;stroke-width:1;"/><path d="M596.839,566.981 Q596.261,567.278 595.621,567.418 Q594.98,567.574 594.277,567.574 Q591.777,567.574 590.449,565.934 Q589.136,564.278 589.136,561.153 Q589.136,558.028 590.449,556.371 Q591.777,554.715 594.277,554.715 Q594.98,554.715 595.621,554.871 Q596.277,555.028 596.839,555.324 L596.839,558.043 Q596.214,557.465 595.621,557.199 Q595.027,556.918 594.402,556.918 Q593.058,556.918 592.371,557.996 Q591.683,559.059 591.683,561.153 Q591.683,563.246 592.371,564.324 Q593.058,565.387 594.402,565.387 Q595.027,565.387 595.621,565.121 Q596.214,564.84 596.839,564.262 L596.839,566.981 Z " fill="#000"/><text x="611.371" y="566.187" fill="#000" font-size="14" textLength="65.488" font-family="Verdana">EventOut</text><line x1="450.98" y1="575.34" x2="809.75" y2="575.34" style="stroke:#000;stroke-width:1;"/><text x="455.98" y="592.335" fill="#000" font-size="14" textLength="52.213" font-family="Verdana">+id: str</text><text x="455.98" y="608.632" fill="#000" font-size="14" textLength="66.808" font-family="Verdana">+title: str</text><text x="455.98" y="624.929" fill="#000" font-size="14" textLength="71.005" font-family="Verdana">+date: str</text><text x="455.98" y="641.226" fill="#000" font-size="14" textLength="159.975" font-family="Verdana">+points: Optional[dict]</text><text x="455.98" y="657.523" fill="#000" font-size="14" textLength="153.699" font-family="Verdana">+extra: Optional[dict]</text><text x="455.98" y="673.819" fill="#000" font-size="14" textLength="162.477" font-family="Verdana">+images: Optional[list]</text><text x="455.98" y="690.116" fill="#000" font-size="14" textLength="348.77" font-family="Verdana">+carousel_images: Optional[List[CarouselImage]]</text><text x="455.98" y="706.413" fill="#000" font-size="14" textLength="232.34" font-family="Verdana">+news: Optional[List[NewsItem]]</text><line x1="450.98" y1="713.715" x2="809.75" y2="713.715" style="stroke:#000;stroke-width:1;"/></g><!--class LoginRequest--><g class="entity" data-qualified-name="LoginRequest" id="ent0006" data-source-line="56"><rect x="530.61" y="69.04" width="123.512" height="60.297" fill="#FFF" style="stroke:#000;stroke-width:1;" rx="2.5" ry="2.5"/><ellipse cx="543.61" cy="83.04" rx="9" ry="9" fill="#FFF" style="stroke:#000;stroke-width:1;"/><path d="M546.579,88.681 Q546.001,88.978 545.36,89.118 Q544.719,89.274 544.016,89.274 Q541.516,89.274 540.188,87.634 Q538.876,85.978 538.876,82.853 Q538.876,79.728 540.188,78.071 Q541.516,76.415 544.016,76.415 Q544.719,76.415 545.36,76.571 Q546.016,76.728 546.579,77.024 L546.579,79.743 Q545.954,79.165 545.36,78.899 Q544.766,78.618 544.141,78.618 Q542.798,78.618 542.11,79.696 Q541.423,80.759 541.423,82.853 Q541.423,84.946 542.11,86.024 Q542.798,87.087 544.141,87.087 Q544.766,87.087 545.36,86.821 Q545.954,86.54 546.579,85.962 L546.579,88.681 Z " fill="#000"/><text x="555.61" y="87.887" fill="#000" font-size="14" textLength="95.512" font-family="Verdana">LoginRequest</text><line x1="531.61" y1="97.04" x2="653.122" y2="97.04" style="stroke:#000;stroke-width:1;"/><text x="536.61" y="114.035" fill="#000" font-size="14" textLength="106.148" font-family="Verdana">+password: str</text><line x1="531.61" y1="121.337" x2="653.122" y2="121.337" style="stroke:#000;stroke-width:1;"/></g><!--class TokenResponse--><g class="entity" data-qualified-name="TokenResponse" id="ent0007" data-source-line="60"><rect x="519.74" y="328.56" width="145.26" height="76.594" fill="#FFF" style="stroke:#000;stroke-width:1;" rx="2.5" ry="2.5"/><ellipse cx="535.747" cy="342.56" rx="9" ry="9" fill="#FFF" style="stroke:#000;stroke-width:1;"/><path d="M538.715,348.201 Q538.137,348.498 537.497,348.638 Q536.856,348.794 536.153,348.794 Q533.653,348.794 532.325,347.154 Q531.012,345.498 531.012,342.373 Q531.012,339.248 532.325,337.591 Q533.653,335.935 536.153,335.935 Q536.856,335.935 537.497,336.091 Q538.153,336.248 538.715,336.544 L538.715,339.263 Q538.09,338.685 537.497,338.419 Q536.903,338.138 536.278,338.138 Q534.934,338.138 534.247,339.216 Q533.559,340.279 533.559,342.373 Q533.559,344.466 534.247,345.544 Q534.934,346.607 536.278,346.607 Q536.903,346.607 537.497,346.341 Q538.09,346.06 538.715,345.482 L538.715,348.201 Z " fill="#000"/><text x="548.415" y="347.407" fill="#000" font-size="14" textLength="110.578" font-family="Verdana">TokenResponse</text><line x1="520.74" y1="356.56" x2="664" y2="356.56" style="stroke:#000;stroke-width:1;"/><text x="525.74" y="373.555" fill="#000" font-size="14" textLength="133.26" font-family="Verdana">+access_token: str</text><text x="525.74" y="389.852" fill="#000" font-size="14" textLength="117.359" font-family="Verdana">+token_type: str</text><line x1="520.74" y1="397.154" x2="664" y2="397.154" style="stroke:#000;stroke-width:1;"/></g><!--link EventCreate to Event--><g class="link" data-entity-1="ent0004" data-entity-2="ent0003" id="lnk8" data-source-line="65" data-link-type="dependency"><path d="M315.37,186.81 C315.37,211.19 315.37,232.94 315.37,258.16" style="stroke:#000;stroke-width:1;stroke-dasharray:7,7;" fill="none" id="EventCreate-to-Event" codeLine="65"/><polygon points="315.37,263.16,319.37,254.16,315.37,258.16,311.37,254.16,315.37,263.16" fill="#000" style="stroke:#000;stroke-width:1;stroke-linejoin:miter;stroke-miterlimit:10;"/><text x="316.37" y="229.447" fill="#000" font-size="13" textLength="48.325" font-family="Verdana">creates</text></g><!--link Event to EventOut--><g class="link" data-entity-1="ent0003" data-entity-2="ent0005" id="lnk9" data-source-line="66" data-link-type="dependency"><path d="M437.15,470.58 C467.11,495.84 495.058,519.406 523.998,543.816" style="stroke:#000;stroke-width:1;stroke-dasharray:7,7;" fill="none" id="Event-to-EventOut" codeLine="66"/><polygon points="527.82,547.04,523.519,538.18,523.998,543.816,518.361,544.295,527.82,547.04" fill="#000" style="stroke:#000;stroke-width:1;stroke-linejoin:miter;stroke-miterlimit:10;"/><text x="493.37" y="513.407" fill="#000" font-size="13" textLength="60.512" font-family="Verdana">serializes</text></g><!--link LoginRequest to TokenResponse--><g class="link" data-entity-1="ent0006" data-entity-2="ent0007" id="lnk10" data-source-line="67" data-link-type="dependency"><path d="M592.37,129.64 C592.37,178.14 592.37,269.76 592.37,323.18" style="stroke:#000;stroke-width:1;stroke-dasharray:7,7;" fill="none" id="LoginRequest-to-TokenResponse" codeLine="67"/><polygon points="592.37,328.18,596.37,319.18,592.37,323.18,588.37,319.18,592.37,328.18" fill="#000" style="stroke:#000;stroke-width:1;stroke-linejoin:miter;stroke-miterlimit:10;"/><text x="593.37" y="229.447" fill="#000" font-size="13" textLength="89.47" font-family="Verdana">authenticates</text></g><!--reverse link Event to NewsItem--><g class="link" data-entity-1="ent0003" data-entity-2="ent0001" id="lnk11" data-source-line="68" data-link-type="composition"><path d="M223.066,479.839 C195.016,513.859 172.31,541.4 147.58,571.41" style="stroke:#000;stroke-width:1;" fill="none" id="Event-backto-NewsItem" codeLine="68"/><polygon points="230.7,470.58,223.797,472.665,223.066,479.839,229.969,477.754,230.7,470.58" fill="#000" style="stroke:#000;stroke-width:1;stroke-linejoin:miter;stroke-miterlimit:10;"/><text x="207.37" y="513.407" fill="#000" font-size="13" textLength="55.028" font-family="Verdana">contains</text><text x="216.475" y="490.471" fill="#000" font-size="13" font-family="Verdana">1</text><text x="146.881" y="560.76" fill="#000" font-size="13" font-family="Verdana">*</text></g><!--reverse link Event to CarouselImage--><g class="link" data-entity-1="ent0003" data-entity-2="ent0002" id="lnk12" data-source-line="69" data-link-type="composition"><path d="M315.37,482.58 C315.37,523.02 315.37,555.4 315.37,587.62" style="stroke:#000;stroke-width:1;" fill="none" id="Event-backto-CarouselImage" codeLine="69"/><polygon points="315.37,470.58,311.37,476.58,315.37,482.58,319.37,476.58,315.37,470.58" fill="#000" style="stroke:#000;stroke-width:1;stroke-linejoin:miter;stroke-miterlimit:10;"/><text x="316.37" y="513.407" fill="#000" font-size="13" textLength="55.028" font-family="Verdana">contains</text><text x="307.099" y="490.471" fill="#000" font-size="13" font-family="Verdana">1</text><text x="308.984" y="577.044" fill="#000" font-size="13" font-family="Verdana">*</text></g><?plantuml-src rPH1Jzmm48Nl-HNkdYZL8hZcKAcYhRGIAX9mGoWopcYPujYfPxAqLFtl7NkzJW91whMNI7xlnPvl9l4xVe0EL6yrkeeUqVKww4uPgua-CGUy7nWsnhjhV0PrMbN9KT_WYJOCdVfTAVM1aItKYZZ4rH1ihIvxHk-qlHNnBgfwu0SV5WpuoK5Fz1ODHsEzZkvEMsmrGvDY3KaLH--hFuSwpdNm0u7TT7eB-sBIyRaKyaCmq2nNr0APW4bzwPRzl-p0yNvVR2Lr_nqCRze9zBNqo6s_8jYanbfhzLcUDzX1aNkFZaaCWIjY9fzf644aU84qYYPJDg_Ssra34fQJqKmJXr6DFIMzYqrCBR30iuOcuFC00h0qsprUNXoWNetkpPaMlE9OgVDkaR548ieBpWdeF5PW__aBIi2NmsJ8cUw_1Ize5twBxWf-340PhnVvoOSCMO8t_X4aIBrtbCUkZG6YXgCpjYIk6lxLGzbW-hsSd7pCFqojJ99exuzERBIy2m5bAi_YpsgCiNajjOhtXho8PhBTwcobZjThjJfUZJUHdEaTopMsb9hV4sFqBm00?></g></svg>